<?xml version="1.0" encoding="UTF-8"?>
<svg version="1.1" xmlns="http://www.w3.org/2000/svg" width="25" height="25">
<path d="M0 0 C2.97 0 5.94 0 9 0 C9 3.96 9 7.92 9 12 C6.03 12 3.06 12 0 12 C0 8.04 0 4.08 0 0 Z " fill="#0077D3" transform="translate(13,10)"/>
<path d="M0 0 C2.97 0 5.94 0 9 0 C9 3.96 9 7.92 9 12 C6.03 12 3.06 12 0 12 C0 8.04 0 4.08 0 0 Z " fill="#0077D3" transform="translate(3,3)"/>
<path d="M0 0 C2.97 0 5.94 0 9 0 C9 1.98 9 3.96 9 6 C6.03 6 3.06 6 0 6 C0 4.02 0 2.04 0 0 Z " fill="#35C0F1" transform="translate(3,16)"/>
<path d="M0 0 C2.97 0 5.94 0 9 0 C9 1.98 9 3.96 9 6 C6.03 6 3.06 6 0 6 C0 4.02 0 2.04 0 0 Z " fill="#35C0F1" transform="translate(13,3)"/>
</svg>
