<?xml version="1.0" encoding="UTF-8"?>
<svg version="1.1" xmlns="http://www.w3.org/2000/svg" width="25" height="25">
<path d="M0 0 C4.29 0 8.58 0 13 0 C13 6.93 13 13.86 13 21 C8.71 21 4.42 21 0 21 C0 14.07 0 7.14 0 0 Z " fill="#FEF1DD" transform="translate(6,2)"/>
<path d="M0 0 C4.29 0 8.58 0 13 0 C13 6.93 13 13.86 13 21 C8.71 21 4.42 21 0 21 C0 14.07 0 7.14 0 0 Z M2 2 C2 7.28 2 12.56 2 18 C4.97 18 7.94 18 11 18 C11 12.72 11 7.44 11 2 C8.03 2 5.06 2 2 2 Z " fill="#E48F43" transform="translate(6,2)"/>
<path d="M0 0 C0 5.61 0 11.22 0 17 C-0.66 17.33 -1.32 17.66 -2 18 C-2 12.72 -2 7.44 -2 2 C-4.97 2 -7.94 2 -11 2 C-11 1.67 -11 1.34 -11 1 C-9.54182203 0.83197949 -8.0834516 0.66562857 -6.625 0.5 C-5.81289062 0.4071875 -5.00078125 0.314375 -4.1640625 0.21875 C-2 0 -2 0 0 0 Z " fill="#E6974F" transform="translate(19,2)"/>
<path d="M0 0 C0.33 1.32 0.66 2.64 1 4 C-3.29 4 -7.58 4 -12 4 C-12 3.01 -12 2.02 -12 1 C-6.06 0.505 -6.06 0.505 0 0 Z " fill="#E08738" transform="translate(18,19)"/>
</svg>
