<?xml version="1.0" encoding="UTF-8"?>
<svg version="1.1" xmlns="http://www.w3.org/2000/svg" width="25" height="25">
<path d="M0 0 C0.99 0.33 1.98 0.66 3 1 C3 1.66 3 2.32 3 3 C4.65 3 6.3 3 8 3 C8.33 2.01 8.66 1.02 9 0 C9.66 0 10.32 0 11 0 C10.85820312 0.64066406 10.71640625 1.28132813 10.5703125 1.94140625 C9.55943313 7.19484877 9.55943313 7.19484877 11.26953125 12.046875 C12.36592221 13.20745747 13.48553341 14.34661109 14.62890625 15.4609375 C16 17 16 17 16.375 19.9375 C16.25125 20.618125 16.1275 21.29875 16 22 C10.61087177 24.63957301 6.02174803 26.36944062 0.00390625 24.3203125 C-1.68968196 23.60471185 -3.34885235 22.80872538 -5 22 C-4.8125 18.8125 -4.8125 18.8125 -4 15 C-3.13375 14.236875 -2.2675 13.47375 -1.375 12.6875 C1.25472215 10.28084123 1.25472215 10.28084123 1.10546875 7.46875 C0.83995887 4.94817621 0.48765781 2.48657198 0 0 Z " fill="#14CED9" transform="translate(7,0)"/>
<path d="M0 0 C0.99 0.33 1.98 0.66 3 1 C3 1.66 3 2.32 3 3 C4.65 3 6.3 3 8 3 C8.33 2.01 8.66 1.02 9 0 C9.66 0 10.32 0 11 0 C10.34 3.63 9.68 7.26 9 11 C6.69 11 4.38 11 2 11 C1.34 7.37 0.68 3.74 0 0 Z " fill="#1CA9B8" transform="translate(7,0)"/>
</svg>
