<svg xmlns="http://www.w3.org/2000/svg" width="512" height="512" viewBox="0 0 512 512" version="1.1"><path d="" stroke="none" fill="#080404" fill-rule="evenodd"/><path d="M 113.259 18.716 C 104.501 23.369, 96.265 29.942, 84.085 42 C 60.187 65.659, 31.613 102.450, 19.978 124.542 C 16.473 131.196, 16.003 132.893, 16.023 138.798 C 16.053 147.168, 19.736 166.054, 24.433 181.910 C 59.250 299.462, 182.830 430.255, 305.016 478.868 C 328.483 488.205, 359.181 495.927, 373.028 495.977 C 378.659 495.997, 380.592 495.470, 387.100 492.142 C 415.291 477.725, 466.830 435.065, 485.180 410.961 C 493.783 399.659, 496.313 393.986, 495.808 387.132 C 495.263 379.722, 491.249 371.196, 485.688 365.636 C 480.381 360.329, 440.724 333.855, 419.500 321.451 C 380.221 298.495, 361.881 292.668, 349.500 299.211 C 342.962 302.666, 337.866 307.591, 323.591 324.250 C 317.111 331.812, 311.610 338, 311.367 338 C 309.586 338, 290.930 330.026, 281.731 325.334 C 241.036 304.574, 207.550 271.066, 186.633 230.172 C 181.971 221.059, 174 202.420, 174 200.633 C 174 200.390, 180.188 194.889, 187.750 188.409 C 209.133 170.086, 214.256 163.709, 215.627 153.707 C 217.537 139.767, 199.289 103.187, 164.641 51.507 C 148.948 28.100, 144.487 23.036, 136.196 19.216 C 127.726 15.313, 119.982 15.144, 113.259 18.716 M 272 47.875 L 272 63.750 275.125 64.375 C 276.844 64.719, 280.781 65.002, 283.875 65.004 C 286.969 65.006, 293.775 65.694, 299 66.532 C 360.302 76.369, 411.320 116.945, 434.752 174.500 C 441.677 191.509, 446.978 214.949, 446.994 228.625 C 446.997 231.444, 447.281 235.156, 447.625 236.875 L 448.250 240 464.125 240 L 480 240 480 232.224 C 480 209.589, 473.005 179.483, 462.037 154.916 C 441.700 109.362, 403.393 70.835, 358 50.282 C 333.902 39.371, 302.364 32, 279.776 32 L 272 32 272 47.875 M 111.353 61.114 C 91.026 81.041, 72.334 103.319, 56.145 126.914 C 47.970 138.829, 47.910 139.143, 51.019 154 C 63.668 214.441, 105.865 283.996, 166.934 345.066 C 228.750 406.881, 298.620 448.951, 360.208 461.437 C 372.809 463.992, 373.429 463.853, 385.086 455.855 C 408.681 439.666, 430.959 420.974, 450.886 400.647 C 460.352 390.990, 462.066 388.784, 461.052 387.563 C 459.113 385.226, 425.714 363.023, 412 354.953 C 396.959 346.103, 365.702 330, 363.564 330 C 362.722 330, 358.313 334.335, 353.766 339.633 C 337.610 358.461, 334.297 362.071, 329.126 366.485 C 321.181 373.267, 318.390 373.763, 306.427 370.516 C 271.333 360.992, 231.949 337.057, 202.336 307.257 C 174.041 278.781, 149.708 237.757, 140.957 203.774 C 138.790 195.358, 138.770 194.890, 140.407 190.604 C 142.404 185.374, 151.480 175.757, 164.500 165.073 C 176.446 155.271, 182 149.897, 182 148.141 C 182 146.136, 165.908 115.106, 157.034 100 C 149.007 86.334, 126.787 52.898, 124.437 50.948 C 123.216 49.934, 121.010 51.648, 111.353 61.114 M 272 127.939 L 272 143.877 276.750 144.462 C 296.336 146.872, 305.873 149.595, 317.838 156.192 C 342.077 169.556, 359.938 193.588, 365.414 220.208 C 366.286 224.447, 367 229.228, 367 230.833 C 367 232.437, 367.281 235.156, 367.625 236.875 L 368.250 240 384.125 240 L 400 240 400 233.631 C 400 220.011, 394.146 197.233, 386.944 182.829 C 375.113 159.168, 352.832 136.887, 329.171 125.056 C 314.767 117.854, 291.989 112, 278.369 112 L 272 112 272 127.939" stroke="none" fill="#040404" fill-rule="evenodd"/></svg>