<svg xmlns="http://www.w3.org/2000/svg" width="512" height="512" viewBox="0 0 512 512" version="1.1"><path d="M 120 47.519 C 97.461 49.358, 85.612 52.979, 70.817 62.549 C 40.396 82.229, 26.777 116.729, 35.381 152.323 C 43.060 184.093, 59.314 224.737, 77.442 257.500 C 129.721 351.979, 215.761 425.353, 317.835 462.503 C 335.506 468.935, 354.294 474.579, 364.596 476.550 C 407.938 484.842, 452.455 454.841, 461.033 411.558 C 462.021 406.576, 463.635 394.071, 464.621 383.769 C 466.709 361.946, 466.113 355.759, 460.898 345.102 C 456.743 336.610, 447.424 327.313, 438.861 323.118 C 435.151 321.300, 426.249 318.564, 417.500 316.553 C 398.096 312.093, 385.011 308.153, 367.251 301.422 C 350.623 295.121, 342.577 293.648, 332.500 295.060 C 324.280 296.212, 313.381 301.115, 307.340 306.378 C 305.051 308.372, 301.139 313.099, 298.646 316.884 C 292.100 326.820, 290.010 327.360, 279.227 321.908 C 249.125 306.687, 217.748 278.508, 198.045 249 C 181.427 224.113, 181.220 221.752, 194.752 211.500 C 202.418 205.693, 208.927 197.351, 212.135 189.225 C 213.968 184.578, 214.397 181.522, 214.409 173 L 214.423 162.500 208.212 146.705 C 201.249 128.997, 196.732 114.147, 192.029 93.500 C 188.043 76.002, 184.228 68.313, 175.463 60.114 C 168.561 53.658, 161.670 49.875, 152.540 47.530 C 145.696 45.773, 141.425 45.772, 120 47.519 M 123.457 80.021 C 109.624 80.844, 102.374 82.676, 92.503 87.840 C 73.868 97.588, 62.678 118.717, 65.881 138.109 C 67.984 150.841, 77.950 181.377, 86.701 201.900 C 115.430 269.272, 162.472 329.405, 220.500 372.930 C 262.974 404.789, 314.834 430.010, 364.438 442.932 C 391.326 449.936, 417.617 436.935, 427.115 411.939 C 429.356 406.042, 433.431 372.063, 432.756 364.902 C 431.892 355.731, 426.910 352.132, 410 348.463 C 393.766 344.941, 368.143 337.209, 355.500 332.017 C 342.517 326.686, 338.441 326.119, 332.825 328.861 C 329.688 330.394, 327.435 332.633, 324.622 337.015 C 319.660 344.744, 313.197 350.467, 305 354.390 C 298.982 357.270, 297.709 357.500, 287.833 357.500 L 277.166 357.500 265.373 351.543 C 223.435 330.360, 187.511 296.233, 161.922 253.269 C 153.683 239.437, 151.474 232.138, 152.284 221.427 C 153.329 207.611, 159.065 198.434, 175.366 184.500 C 180.631 179.999, 181.266 179.036, 181.726 174.851 C 182.157 170.933, 181.448 168.183, 177.214 157.351 C 169.109 136.618, 164.094 119.720, 158.892 95.618 C 157.316 88.316, 154.604 84.189, 149.470 81.282 C 145.155 78.837, 144.142 78.788, 123.457 80.021" stroke="none" fill="#0c4cdc" fill-rule="evenodd"/><path d="M 441.653 85.216 C 438.488 86.062, 430.773 93.145, 398.182 125.124 L 358.558 164.003 335.529 141.088 C 315.930 121.585, 311.873 118.006, 308.287 117.057 C 297.901 114.310, 288 121.740, 288 132.282 C 288 134.931, 288.645 138.314, 289.434 139.800 C 290.223 141.285, 304.285 155.856, 320.684 172.179 C 353.282 204.627, 354.064 205.202, 362.486 202.876 C 367.030 201.622, 369.379 199.488, 407.500 161.987 C 422.350 147.379, 440.069 130.043, 446.875 123.463 C 460.894 109.911, 463.611 105.561, 462.536 98.392 C 461.102 88.826, 451.293 82.638, 441.653 85.216" stroke="none" fill="#23bcfc" fill-rule="evenodd"/></svg>