<svg xmlns="http://www.w3.org/2000/svg" width="512" height="512" viewBox="0 0 512 512" version="1.1"><path d="" stroke="none" fill="#080404" fill-rule="evenodd"/><path d="M 93 0.622 C 84.453 3.947, 82.419 5.831, 58.253 32.796 C 13.833 82.362, 12.209 84.432, 6.666 98.576 C 1.444 111.903, 0.497 118.158, 0.548 139 C 0.591 156.735, 0.849 159.586, 3.395 170.500 C 15.615 222.872, 48.448 280.445, 100.911 341.495 C 113.340 355.958, 146.247 389.239, 162.500 403.783 C 226.694 461.226, 290.896 498.251, 345.332 509.222 C 361.382 512.456, 387.524 512.445, 400.500 509.198 C 412.139 506.285, 427.775 498.597, 436 491.741 C 447.391 482.247, 504.135 431.098, 506.225 428.440 C 509.233 424.617, 512 416.546, 512 411.595 C 512 404.765, 508.472 394.979, 502.971 386.553 C 484.101 357.647, 423.076 313.641, 393.901 307.901 C 389.149 306.966, 386.652 306.982, 382.181 307.978 C 375.721 309.418, 375.484 309.636, 346.015 341.292 L 329.531 359 324.734 359 C 305.589 359, 265.325 332.815, 227.101 295.506 C 183.477 252.927, 154.852 211.636, 153.228 188.949 L 152.758 182.377 173.129 163.277 C 184.333 152.772, 194.738 143.205, 196.251 142.016 C 199.891 139.155, 203.624 132.465, 204.351 127.500 C 205.720 118.151, 200.045 102.269, 188.195 82.284 C 165.640 44.244, 136.973 13.202, 115.188 3.229 C 109.613 0.676, 96.746 -0.835, 93 0.622 M 76.895 61.212 C 62.983 76.771, 49.622 91.734, 47.205 94.464 C 42.381 99.912, 36.858 110.101, 35.012 116.955 C 21.205 168.229, 65.200 257.157, 146.801 342.918 C 215.821 415.457, 296.039 467.455, 354.381 477.475 C 365.870 479.448, 383.186 479.437, 391.918 477.450 C 405.611 474.336, 410.494 470.874, 446.032 439.084 L 478.917 409.668 477.209 406.743 C 467.252 389.698, 430.370 360.046, 400.573 345.132 L 391.646 340.663 380.136 353.082 C 373.806 359.912, 363.873 370.270, 358.063 376.099 C 344.466 389.742, 340.666 391.477, 324.500 391.419 C 314.880 391.385, 312.302 390.982, 303.946 388.206 C 239.381 366.756, 137.516 262.607, 121.911 202.090 C 118.438 188.624, 119.864 173.842, 125.477 165.097 C 127.855 161.392, 145.413 143.894, 161.804 128.894 L 171.108 120.379 165.610 109.440 C 150.999 80.365, 123.589 46.472, 105.342 34.919 L 102.191 32.924 76.895 61.212 M 299.970 59.250 C 293.982 62.275, 291 66.917, 291 73.214 C 291 75.918, 291.497 79.114, 292.105 80.316 C 292.713 81.517, 305.869 95.209, 321.340 110.742 L 349.470 138.983 321.294 167.242 C 305.798 182.784, 292.642 196.767, 292.059 198.315 C 288.238 208.469, 294.051 219.392, 303.983 220.725 C 313.386 221.986, 313.188 222.131, 344.266 191.187 L 373.032 162.545 401.266 190.667 C 416.795 206.134, 430.483 219.287, 431.684 219.895 C 432.886 220.503, 436.082 221, 438.786 221 C 445.191 221, 449.757 217.995, 452.862 211.737 C 454.801 207.827, 455.098 206.130, 454.522 202.238 C 453.842 197.638, 452.983 196.658, 424.926 168.478 L 396.030 139.456 423.537 111.978 C 440.748 94.786, 451.785 82.978, 453.022 80.434 C 455.605 75.124, 455.520 71.297, 452.697 65.960 C 450.115 61.078, 443.726 57, 438.658 57 C 432.326 57, 427.636 60.819, 400.022 88.463 L 372.544 115.970 343.522 87.124 C 320.020 63.765, 313.858 58.157, 311.125 57.639 C 305.942 56.657, 304.766 56.827, 299.970 59.250" stroke="none" fill="#040404" fill-rule="evenodd"/></svg>