<svg xmlns="http://www.w3.org/2000/svg" width="512" height="512" viewBox="0 0 512 512" version="1.1"><path d="M 247.890 2.323 C 246.025 3.601, 239.341 8.791, 233.036 13.857 C 212.859 30.069, 181.925 49.580, 161 59.293 C 131.865 72.817, 101.563 80.977, 80.407 80.994 C 71.724 81.001, 65.667 83.767, 62.855 89.009 C 61.145 92.199, 61 95.334, 61 129.234 L 61 166 76 166 L 91 166 91 138.715 L 91 111.430 100.548 110.148 C 143.434 104.393, 195.460 80.726, 242.114 45.750 C 249.266 40.388, 255.536 36, 256.046 36 C 256.556 36, 261.624 39.535, 267.309 43.855 C 314.789 79.938, 367.713 104.278, 411.452 110.148 L 421 111.430 421 138.715 L 421 166 436 166 L 451 166 451 129.234 C 451 95.334, 450.855 92.199, 449.145 89.009 C 446.333 83.767, 440.276 81.001, 431.593 80.994 C 389.561 80.959, 329.348 54.060, 276 11.485 C 269.675 6.438, 263.517 1.788, 262.316 1.154 C 258.589 -0.815, 251.647 -0.252, 247.890 2.323 M 235.500 152.602 C 222.956 155.385, 204 162.941, 204 165.159 C 204 165.622, 227.738 165.990, 256.750 165.978 C 308.773 165.956, 309.466 165.929, 307.028 164.056 C 305.668 163.011, 304.206 162.373, 303.778 162.637 C 303.350 162.902, 303 162.713, 303 162.217 C 303 161.086, 291.129 156.391, 281.666 153.780 C 271.771 151.049, 245.521 150.379, 235.500 152.602" stroke="none" fill="#87f5ac" fill-rule="evenodd"/><path d="M 201.327 166.500 C 184.023 175.970, 166.081 196.993, 158.226 217 C 152.670 231.151, 151.500 237.935, 151.500 256 C 151.500 268.871, 151.916 274.150, 153.391 280 C 158.069 298.560, 166.249 313.724, 178.766 327.040 C 195.540 344.885, 213.176 354.747, 236.894 359.542 C 248.186 361.825, 271.097 361.105, 282 358.123 C 302.263 352.582, 314.717 345.285, 330 329.995 C 345.218 314.771, 352.733 301.890, 358.225 281.613 C 361.259 270.411, 361.469 243.343, 358.609 232 C 355.958 221.481, 351.617 210.847, 346.165 201.516 C 340.799 192.332, 322.402 172.998, 314.882 168.641 L 310.264 165.965 256.709 165.732 C 222.441 165.584, 202.496 165.860, 201.327 166.500 M 61 230.539 C 61 268.984, 61.426 299.005, 62.055 304.789 C 65.754 338.854, 77.611 373.306, 94.597 399.339 C 123.423 443.521, 167.262 476.704, 233.703 504.631 C 255.192 513.663, 255.775 513.689, 274 506.413 C 291.996 499.230, 326.088 482.217, 339.787 473.585 C 398.450 436.621, 434.410 387.178, 446.400 327 C 450.644 305.702, 451 298.236, 451 230.539 L 451 166 436.101 166 L 421.202 166 420.706 231.250 C 420.204 297.488, 419.944 302.444, 415.935 322.251 C 407.991 361.502, 386.519 397.403, 354.692 424.645 C 331.354 444.621, 297.632 464.113, 263.279 477.483 L 256.057 480.294 251.279 478.498 C 248.650 477.511, 239.975 473.822, 232 470.302 C 154.500 436.091, 109.096 386.640, 96.065 322.251 C 92.056 302.444, 91.796 297.488, 91.294 231.250 L 90.798 166 75.899 166 L 61 166 61 230.539 M 245.809 182.116 C 237.369 183.203, 224.827 187.748, 216.739 192.649 C 208.381 197.714, 197.305 208.954, 192.194 217.557 C 174.552 247.252, 179.123 284.253, 203.431 308.514 C 232.783 337.810, 279.271 337.826, 308.548 308.548 C 352.446 264.651, 326.463 189.766, 264.644 182.015 C 255.672 180.890, 255.303 180.892, 245.809 182.116 M 279.500 227.149 C 278.400 227.747, 269.297 236.381, 259.272 246.336 L 241.044 264.435 237.772 261.338 C 233.278 257.083, 230.848 255.999, 225.816 256.004 C 214.897 256.013, 207.378 268.254, 212.429 277.800 C 214.124 281.003, 231.545 298.294, 234.684 299.890 C 237.739 301.442, 244.584 301.273, 247.800 299.566 C 251.046 297.843, 298.318 250.430, 299.894 247.316 C 303.002 241.176, 300.031 231.819, 293.759 227.995 C 290.162 225.801, 282.782 225.364, 279.500 227.149" stroke="none" fill="#4cd9a4" fill-rule="evenodd"/></svg>