<svg xmlns="http://www.w3.org/2000/svg" width="512" height="512" viewBox="0 0 512 512" version="1.1"><path d="M 265.222 3.047 C 253.885 8.712, 248.600 17.420, 248.560 30.500 C 248.531 39.939, 250.771 45.536, 257.118 51.882 C 271.479 66.243, 295.746 62.766, 305.428 44.961 C 307.731 40.725, 308.450 37.946, 308.798 31.931 C 309.189 25.174, 308.918 23.566, 306.461 18.092 C 303.125 10.659, 296.109 3.907, 289.316 1.592 C 286.746 0.716, 281.646 0, 277.982 0 C 272.557 0, 270.187 0.566, 265.222 3.047 M 33.233 19.668 C 27.126 21.829, 18.747 29.858, 15.949 36.230 C 12.781 43.445, 12.742 53.554, 15.857 60.500 C 18.673 66.781, 24.044 72.401, 30.500 75.822 C 34.776 78.088, 36.730 78.472, 44 78.472 C 51.270 78.472, 53.224 78.088, 57.500 75.822 C 63.774 72.498, 69.290 66.829, 71.923 61 C 74.917 54.372, 74.784 42.225, 71.643 35.480 C 68.726 29.215, 60.545 21.715, 54.316 19.592 C 48.545 17.625, 38.907 17.660, 33.233 19.668 M 161.223 182.557 C 159.841 183.524, 159 185.155, 159 186.866 C 159 190.780, 157.245 192.601, 151.213 194.945 C 144.626 197.505, 142.922 197.513, 139.727 195 C 138.329 193.900, 136.403 193, 135.447 193 C 134.492 193, 129.050 197.585, 123.355 203.190 C 112.265 214.103, 110.948 216.833, 115 220.500 C 117.671 222.917, 117.533 224.626, 114.042 232.407 C 111.410 238.273, 110.773 239, 108.264 239 C 106.714 239, 104.445 239.701, 103.223 240.557 C 101.095 242.047, 101 242.750, 101 257 C 101 271.250, 101.095 271.953, 103.223 273.443 C 104.445 274.299, 106.714 275, 108.264 275 C 110.773 275, 111.410 275.727, 114.042 281.593 C 117.533 289.374, 117.671 291.083, 115 293.500 C 110.948 297.167, 112.265 299.897, 123.355 310.810 C 129.050 316.415, 134.492 321, 135.447 321 C 136.403 321, 138.329 320.100, 139.727 319 C 142.943 316.471, 144.470 316.492, 151.117 319.163 C 157.365 321.674, 159 323.327, 159 327.134 C 159 332.087, 161.807 333, 177.031 333 C 192.397 333, 193.545 332.579, 194.749 326.500 C 195.459 322.914, 196.107 322.222, 201.020 319.808 C 207.634 316.559, 211.089 316.336, 213.500 319 C 216.688 322.522, 219.045 321.424, 229.082 311.740 C 241.515 299.745, 241.793 299.209, 238.496 293.583 L 235.915 289.179 239.208 282.340 C 241.455 277.670, 243.135 275.408, 244.500 275.211 C 252.171 274.103, 253 272.326, 253 257 C 253 241.674, 252.171 239.897, 244.500 238.789 C 243.136 238.592, 241.460 236.340, 239.231 231.710 L 235.962 224.921 238.481 220.623 C 239.866 218.259, 241 215.959, 241 215.513 C 241 213.914, 219.580 193, 217.942 193 C 217.022 193, 215.126 193.900, 213.727 195 C 210.356 197.652, 207.601 197.482, 201.025 194.218 C 196.426 191.935, 195.418 190.940, 194.725 188 C 193.236 181.690, 191.450 181, 176.612 181 C 166.313 181, 162.961 181.339, 161.223 182.557 M 168.994 230.934 C 157.668 234.379, 149.800 245.065, 149.800 257 C 149.800 271.977, 161.803 284.077, 176.500 283.914 C 187.136 283.797, 195.564 278.890, 200.500 269.939 C 203.107 265.213, 203.493 263.517, 203.444 257 C 203.359 245.533, 198.795 238.053, 188.854 233.085 C 182.512 229.916, 175.012 229.104, 168.994 230.934 M 371.400 254.825 C 356.881 265.343, 348.238 282.502, 349.168 298.961 C 349.500 304.842, 350.016 306.461, 352.587 309.694 C 354.253 311.787, 357.598 314.512, 360.020 315.750 C 364.351 317.963, 365.032 318, 401.244 318 C 440.766 318, 442.347 317.820, 447.834 312.702 C 455.870 305.206, 456.111 289.967, 448.442 274.293 C 445.485 268.248, 435.713 257.222, 430.407 253.943 L 426.996 251.835 423.078 254.938 C 416.062 260.495, 410.403 262.470, 401.500 262.470 C 392.633 262.470, 386.937 260.494, 380.027 255.021 C 377.929 253.359, 376.007 252, 375.756 252 C 375.505 252, 373.545 253.271, 371.400 254.825 M 33.820 437.580 C 27.402 439.555, 18.926 447.452, 15.949 454.230 C 12.758 461.498, 12.758 471.502, 15.949 478.770 C 18.851 485.378, 27.161 493.185, 33.643 495.394 C 39.650 497.441, 48.332 497.447, 54.316 495.408 C 60.545 493.285, 68.726 485.785, 71.643 479.520 C 73.480 475.575, 73.980 472.787, 73.980 466.500 C 73.980 456.273, 71.391 450.335, 64.055 443.740 C 55.898 436.406, 44.910 434.167, 33.820 437.580 M 269.396 452.418 C 251.591 457.991, 243.211 478.341, 251.579 495.682 C 254.563 501.863, 259.474 506.412, 266.769 509.752 C 271.313 511.832, 273.300 512.151, 279.815 511.847 C 292.399 511.259, 301.417 505.146, 306.539 493.733 C 308.911 488.448, 309.186 486.782, 308.798 480.069 C 308.450 474.054, 307.731 471.275, 305.428 467.039 C 298.594 454.471, 283.024 448.153, 269.396 452.418" stroke="none" fill="#6b9cd2" fill-rule="evenodd"/><path d="M 230.132 23.078 C 219.912 25.086, 210.681 32.357, 206.108 42 C 203.567 47.359, 203.492 48.093, 203.184 70.651 L 202.869 93.801 173.684 94.268 C 146.104 94.710, 143.895 94.886, 133.500 97.464 C 127.450 98.964, 121.487 100.426, 120.250 100.713 C 118.002 101.233, 118 101.218, 118 87.800 C 118 65.943, 115.255 56.915, 106.181 48.928 C 100.448 43.882, 93.264 41.288, 82.630 40.425 L 74 39.725 74 47.862 L 74 56 79.057 56 C 86.912 56, 92.550 57.827, 96.193 61.553 C 101.250 66.725, 101.840 69.615, 101.924 89.633 L 102 107.765 96.750 110.339 C 37.409 139.429, 1.030 202.993, 6.029 268.852 C 7.726 291.220, 12.443 308.061, 23.015 329.500 C 37.077 358.017, 58.046 380.434, 86.830 397.721 C 92.633 401.206, 98.419 404.318, 99.690 404.637 L 102 405.217 102 423.959 C 102 444.087, 101.376 447.709, 97.114 452.339 C 93.164 456.629, 89.505 458.116, 81.383 458.730 L 74 459.289 74 466.644 L 74 474 82.462 474 C 92.781 474, 99.863 471.633, 106.181 466.072 C 115.372 457.982, 118 449.117, 118 426.209 C 118 412.882, 118.133 411.837, 119.750 412.461 C 132.453 417.362, 150.917 419.935, 178.682 420.673 L 202.863 421.315 203.182 442.908 C 203.489 463.778, 203.587 464.684, 206.108 470 C 212.400 483.268, 224.621 490, 242.414 490 L 248.555 490 248.527 482.111 L 248.500 474.222 240 473.793 C 230.203 473.299, 226.395 471.694, 222.302 466.332 L 219.500 462.662 219.194 441.859 L 218.888 421.057 282.694 420.779 C 352.777 420.473, 350.705 420.657, 354.035 414.434 C 356.167 410.450, 356.167 369.550, 354.035 365.566 C 350.627 359.197, 356.312 359.552, 248.500 358.977 L 150.500 358.454 142.500 356.179 C 138.100 354.928, 130 351.717, 124.500 349.044 C 66.603 320.905, 48.540 247.841, 86.768 196.414 C 100.296 178.215, 120.603 164.408, 143.500 157.841 L 151.500 155.547 249 155.023 C 337.455 154.549, 346.782 154.346, 349.535 152.835 C 355.108 149.779, 355.500 147.884, 355.500 124 C 355.500 106.859, 355.192 101.728, 354.035 99.566 C 350.986 93.867, 352.678 94, 282.996 94 L 218.894 94 219.197 71.669 L 219.500 49.339 222.302 45.668 C 226.395 40.306, 230.203 38.701, 240 38.207 L 248.500 37.778 248.527 29.889 L 248.555 22 241.527 22.110 C 237.662 22.170, 232.534 22.605, 230.132 23.078 M 447.920 33.038 C 434.075 35.297, 422.268 48.002, 420.444 62.605 C 419.576 69.548, 422.027 79.356, 425.998 84.839 L 428.772 88.668 425.401 90.483 C 420.137 93.318, 410.563 103.942, 407.113 110.776 C 403.531 117.873, 401.026 127.444, 401.037 134 C 401.051 142.779, 407.612 151.688, 415.723 153.940 C 418.023 154.579, 432.993 154.989, 454 154.989 C 475.007 154.989, 489.977 154.579, 492.277 153.940 C 496.721 152.706, 502.428 147.975, 504.747 143.602 C 507.035 139.288, 506.712 127.363, 504.080 118.928 C 502.952 115.313, 500.304 109.688, 498.195 106.428 C 494.344 100.475, 485.366 91.588, 481.346 89.751 L 479.192 88.767 482.109 84.168 C 485.877 78.225, 486.988 74.048, 486.994 65.788 C 487.012 45.009, 468.687 29.650, 447.920 33.038 M 390.205 197.834 C 375.901 202.937, 367.133 216.632, 368.242 232.136 C 369.141 244.696, 375.807 254.056, 388 259.874 C 392.517 262.030, 394.929 262.498, 401.500 262.498 C 408.071 262.498, 410.483 262.030, 415 259.874 C 422.780 256.161, 428.428 250.865, 431.689 244.224 C 434.138 239.237, 434.500 237.341, 434.500 229.500 C 434.500 221.690, 434.134 219.754, 431.730 214.858 C 428.470 208.221, 421.728 201.657, 415.176 198.741 C 408.526 195.783, 397.118 195.368, 390.205 197.834 M 444.951 360.302 C 434.194 363.345, 425.186 372.285, 421.867 383.211 C 419.072 392.415, 419.769 399.079, 424.509 408.453 C 427.580 414.526, 427.824 415.519, 426.438 416.295 C 417.526 421.282, 407.563 433.793, 404.017 444.449 C 399.107 459.203, 400.501 469.849, 408.207 476.445 C 414.390 481.737, 418.267 482.162, 457.198 481.810 L 491.500 481.500 495.961 479 C 500.986 476.184, 504.497 471.584, 506.065 465.758 C 508.003 458.560, 504.619 443.849, 498.702 433.755 C 496.224 429.528, 486.786 419.968, 482 416.837 C 479.524 415.217, 479.517 415.175, 481.305 412.351 C 485.845 405.178, 486.500 402.670, 486.491 392.500 C 486.481 381.143, 485.024 377.236, 477.926 369.536 C 470.368 361.336, 455.759 357.245, 444.951 360.302" stroke="none" fill="#eeb0dd" fill-rule="evenodd"/></svg>