<svg xmlns="http://www.w3.org/2000/svg" width="512" height="512" viewBox="0 0 512 512" version="1.1"><path d="M 137.500 1.509 C 98.251 8.613, 70.136 31.787, 58.048 67 C 51.937 84.800, 49.412 111.348, 51.929 131.340 C 52.987 139.746, 56.453 154.922, 58.531 160.250 C 59.169 161.886, 57.711 162, 36.196 162 L 13.178 162 10.589 165.077 C 7.636 168.586, 7.375 170.890, 9.470 174.941 C 11.829 179.504, 15.059 180, 42.434 180 L 67.569 180 69.461 183.250 C 83.073 206.626, 125.347 245.986, 220.457 323.841 C 249.166 347.341, 252.782 350, 256.031 350 C 259.281 350, 262.885 347.347, 291.574 323.836 C 325.667 295.896, 355.498 270.817, 371.074 257 C 388.255 241.760, 412.636 219.218, 419.983 211.779 C 426.982 204.694, 438.762 189.802, 442.551 183.250 L 444.431 180 469.566 180 C 496.941 180, 500.171 179.504, 502.530 174.941 C 504.625 170.890, 504.364 168.586, 501.411 165.077 L 498.822 162 475.804 162 C 454.288 162, 452.831 161.886, 453.471 160.250 C 453.848 159.287, 455.228 154.450, 456.539 149.500 C 463.077 124.808, 462.401 93.797, 454.807 70.033 C 449.191 52.460, 442.099 40.811, 429.520 28.500 C 416.580 15.835, 399.364 6.798, 380 2.506 C 368.525 -0.037, 341.805 -0.619, 330.086 1.419 C 302.255 6.260, 275.796 22.047, 258.722 44 L 256 47.500 253.278 44 C 238.611 25.143, 214.842 9.514, 191.500 3.380 C 182.876 1.114, 179.023 0.705, 163.500 0.407 C 150.782 0.163, 143.152 0.486, 137.500 1.509 M 142.840 18.472 C 130.736 20.456, 123.744 22.597, 114.633 27.107 C 104.470 32.138, 98.434 36.623, 91.282 44.457 C 78.159 58.833, 71.373 75.844, 68.855 100.673 C 66.990 119.071, 70.208 143.490, 76.443 158.250 L 78.027 162 108.398 162 L 138.769 162 146.635 130.250 C 155.059 96.245, 155.994 94, 161.732 94 C 166.142 94, 168.823 96.560, 170.420 102.297 C 171.217 105.158, 175.574 125.050, 180.103 146.500 C 184.631 167.950, 188.611 185.828, 188.946 186.228 C 189.282 186.629, 192.655 176.504, 196.441 163.728 C 205.785 132.208, 206.459 130.467, 209.878 129.051 C 213.145 127.697, 217.209 128.465, 219.348 130.840 C 220.171 131.753, 222.954 139.925, 225.533 149 C 229.706 163.689, 232 169.798, 232 166.226 C 232 165.580, 233.328 164.365, 234.950 163.526 C 237.343 162.288, 242.232 162, 260.826 162 L 283.751 162 290.923 133.250 C 294.867 117.438, 298.540 102.816, 299.084 100.757 C 300.751 94.450, 307.734 92.091, 312.427 96.250 C 314.725 98.286, 315.826 102.547, 323.991 141 C 328.955 164.375, 333.368 184.338, 333.798 185.363 C 334.350 186.678, 336.923 179.319, 342.540 160.363 C 351.018 131.752, 352.853 128, 358.367 128 C 363.637 128, 365.618 131.409, 370.573 149 C 374.706 163.670, 377 169.820, 377 166.226 C 377 165.580, 378.328 164.365, 379.950 163.526 C 382.368 162.275, 387.497 162, 408.378 162 L 433.856 162 435.794 156.750 C 441.343 141.714, 443.242 130.231, 443.195 112 C 443.053 57.596, 415.257 24.338, 364.603 17.962 C 325.901 13.090, 290.213 29.160, 267.590 61.646 C 257.863 75.614, 254.137 75.614, 244.410 61.646 C 229.403 40.096, 210.279 26.548, 186.119 20.351 C 173.902 17.217, 155.397 16.414, 142.840 18.472 M 160.115 144.649 C 159.556 146.767, 157.645 154.339, 155.869 161.476 C 151.125 180.538, 154.452 179, 117.947 179 L 87.804 179 89.709 182.010 C 100.495 199.044, 159.266 251.843, 243.213 319.912 L 255.926 330.221 258.359 328.360 C 266.754 321.943, 340.753 260.215, 354 248.580 C 396.547 211.211, 417.040 191.029, 423.382 180.250 C 423.959 179.270, 420.448 179, 407.142 179 L 390.165 179 386.487 190.040 C 382.524 201.932, 380.572 204.333, 374.866 204.333 C 369.872 204.333, 368.285 201.514, 363.114 183.457 L 358.258 166.500 355.653 175 C 354.220 179.675, 350.141 193.170, 346.588 204.989 C 339.642 228.091, 338.572 230, 332.564 230 C 326.210 230, 325.759 228.780, 317.025 187.956 C 306.698 139.692, 306.880 140.446, 306.007 142.112 C 305.607 142.875, 303.583 150.385, 301.510 158.799 C 299.437 167.214, 296.939 175.089, 295.960 176.299 C 294.234 178.433, 293.427 178.515, 269.423 179 L 244.665 179.500 241.028 190.500 C 237.654 200.703, 237.131 201.629, 233.820 203.273 C 229.623 205.357, 225.945 204.457, 223.695 200.795 C 222.919 199.533, 220.357 191.637, 218.001 183.250 C 215.644 174.863, 213.443 168.003, 213.108 168.007 C 212.774 168.011, 208.675 180.948, 204 196.757 C 194.797 227.876, 193.757 230, 187.720 230 C 181.052 230, 180.800 229.301, 170.959 183.476 C 166.018 160.467, 161.785 141.452, 161.553 141.220 C 161.321 140.988, 160.674 142.531, 160.115 144.649 M 477.324 224.381 C 471.152 226.398, 466.160 229.796, 463.036 234.109 C 461.511 236.214, 456.077 247.738, 450.959 259.718 C 445.842 271.698, 441.498 281.697, 441.305 281.939 C 441.113 282.180, 438.999 281.426, 436.607 280.264 C 429.612 276.866, 421.138 275.586, 413.980 276.847 C 405.284 278.378, 398.683 281.792, 389.686 289.410 C 375.922 301.063, 361.088 310.158, 344 317.421 C 327.433 324.463, 316.396 335.369, 307.490 353.500 C 301.336 366.027, 299.015 376.317, 298.299 394.251 L 297.709 409.001 293.665 410.090 C 288.543 411.470, 283.526 416.443, 282.109 421.547 C 280.707 426.594, 280.595 495.102, 281.980 499.931 C 283.082 503.773, 287.147 508.472, 291.200 510.589 C 293.425 511.751, 303.032 511.997, 345.700 511.984 C 397.453 511.967, 397.504 511.965, 401.425 509.734 C 403.872 508.341, 406.226 505.840, 407.675 503.093 C 409.990 498.704, 410 498.527, 409.978 461.093 C 409.957 425.598, 409.844 423.253, 407.946 419.069 L 405.935 414.637 435.776 384.569 C 455.307 364.888, 467.048 352.254, 469.762 348 C 472.042 344.425, 481.181 325.525, 490.071 306 C 513.182 255.241, 513 255.689, 513 249.411 C 513 246.435, 512.663 243.998, 512.250 243.996 C 511.837 243.994, 510.689 242.021, 509.699 239.612 C 504.756 227.591, 489.486 220.407, 477.324 224.381 M 16.435 225.890 C 10.708 228.491, 5.487 233.362, 3.068 238.360 C 1.470 241.661, 1 244.581, 1 251.216 C 1 259.069, 1.330 260.519, 4.876 268.230 C 10.693 280.880, 16.150 284.004, 22.077 278.077 C 23.708 276.445, 25 274.077, 25 272.717 C 25 271.376, 23.200 266.384, 21 261.622 C 18.800 256.860, 17 252.042, 17 250.916 C 17 242.794, 27.439 237.916, 33.405 243.250 C 35.024 244.697, 40.034 255.086, 47.445 272.365 C 62.750 308.047, 64.321 310.337, 93.968 340.215 C 109.080 355.445, 118.458 364.153, 120.176 364.555 C 125.960 365.905, 131.943 359.895, 130.508 354.176 C 130.094 352.525, 120.541 342.118, 105.561 327 C 92.209 313.525, 80.748 301.475, 80.093 300.223 C 78.985 298.107, 79.203 297.809, 83.201 295.995 C 88.219 293.717, 95.708 293.433, 100.282 295.346 C 102.052 296.086, 107.339 299.857, 112.031 303.725 C 123.719 313.361, 138.952 323.174, 150.688 328.628 C 156.084 331.136, 162.927 334.336, 165.894 335.738 C 176.812 340.899, 187.546 354.837, 192.666 370.500 C 194.879 377.267, 195.356 380.850, 195.762 393.750 L 196.243 409 160.826 409 L 125.409 409 91.437 374.750 C 60.030 343.086, 57.144 339.884, 53.211 332.340 C 49.865 325.924, 48.314 323.956, 45.950 323.132 C 40.336 321.175, 35 325.114, 35 331.214 C 35 340.834, 43.121 351.327, 76.673 385.059 L 106.074 414.617 104.059 419.059 C 102.155 423.255, 102.043 425.570, 102.022 461.093 C 102 498.527, 102.010 498.704, 104.325 503.093 C 105.774 505.840, 108.128 508.341, 110.575 509.734 C 114.496 511.965, 114.547 511.967, 166.300 511.984 C 208.968 511.997, 218.575 511.751, 220.800 510.589 C 224.634 508.586, 228.538 504.069, 229.864 500.101 C 231.401 495.502, 231.425 427.070, 229.891 421.547 C 228.474 416.443, 223.457 411.470, 218.335 410.090 L 214.291 409.001 213.701 394.251 C 212.985 376.317, 210.664 366.027, 204.510 353.500 C 195.604 335.369, 184.567 324.463, 168 317.421 C 151.050 310.217, 136.305 301.199, 122.314 289.481 C 118.016 285.881, 112.222 281.814, 109.438 280.442 C 99.055 275.329, 85.707 275.253, 75.420 280.251 C 73.013 281.420, 70.885 282.180, 70.691 281.939 C 70.497 281.697, 66.613 272.725, 62.060 262 C 51.762 237.744, 49.543 233.599, 44.891 229.914 C 37.339 223.933, 24.685 222.143, 16.435 225.890 M 478.595 243.250 C 476.976 244.697, 471.966 255.086, 464.555 272.365 C 449.390 307.719, 447.567 310.404, 419.032 339.384 C 406.639 351.971, 395.076 362.873, 393.335 363.612 C 386.980 366.310, 380.055 360.782, 381.619 354.259 C 382.046 352.475, 390.839 342.841, 406.497 327 C 419.817 313.525, 431.237 301.503, 431.875 300.284 C 432.887 298.348, 432.697 297.848, 430.369 296.322 C 426.726 293.935, 416.465 293.361, 411.857 295.286 C 409.894 296.107, 404.587 299.866, 400.064 303.639 C 384.790 316.385, 375.149 322.135, 346.606 335.523 C 335.185 340.881, 324.563 354.503, 319.334 370.500 C 317.121 377.267, 316.644 380.850, 316.238 393.750 L 315.757 409 351.175 409 L 386.592 409 420.126 375.250 L 453.660 341.500 458.701 331.500 C 461.473 326, 470.812 305.873, 479.455 286.773 C 496.691 248.682, 496.743 248.486, 490.850 243.527 C 487.006 240.293, 482.029 240.180, 478.595 243.250 M 24.389 296.342 C 18.820 301.132, 22.124 309.400, 29.607 309.400 C 32.353 309.400, 33.847 308.716, 35.630 306.644 C 42.373 298.804, 32.280 289.554, 24.389 296.342 M 119 461.155 L 119 495.310 132.658 494.655 C 140.170 494.295, 161.320 494, 179.658 494 L 213 494 213 460.500 L 213 427 166 427 L 119 427 119 461.155 M 299 460.500 L 299 494 337 494 L 375 494 375 460.500 L 375 427 337 427 L 299 427 299 460.500" stroke="none" fill="#5294fc" fill-rule="evenodd"/><path d="M 142.840 18.472 C 130.736 20.456, 123.744 22.597, 114.633 27.107 C 104.470 32.138, 98.434 36.623, 91.282 44.457 C 78.159 58.833, 71.373 75.844, 68.855 100.673 C 66.990 119.071, 70.208 143.490, 76.443 158.250 L 78.027 162 108.398 162 L 138.769 162 146.635 130.250 C 155.059 96.245, 155.994 94, 161.732 94 C 166.142 94, 168.823 96.560, 170.420 102.297 C 171.217 105.158, 175.574 125.050, 180.103 146.500 C 184.631 167.950, 188.611 185.828, 188.946 186.228 C 189.282 186.629, 192.655 176.504, 196.441 163.728 C 205.785 132.208, 206.459 130.467, 209.878 129.051 C 213.145 127.697, 217.209 128.465, 219.348 130.840 C 220.171 131.753, 222.954 139.925, 225.533 149 C 229.706 163.689, 232 169.798, 232 166.226 C 232 165.580, 233.328 164.365, 234.950 163.526 C 237.343 162.288, 242.232 162, 260.826 162 L 283.751 162 290.923 133.250 C 294.867 117.438, 298.540 102.816, 299.084 100.757 C 300.751 94.450, 307.734 92.091, 312.427 96.250 C 314.725 98.286, 315.826 102.547, 323.991 141 C 328.955 164.375, 333.368 184.338, 333.798 185.363 C 334.350 186.678, 336.923 179.319, 342.540 160.363 C 351.018 131.752, 352.853 128, 358.367 128 C 363.637 128, 365.618 131.409, 370.573 149 C 374.706 163.670, 377 169.820, 377 166.226 C 377 165.580, 378.328 164.365, 379.950 163.526 C 382.368 162.275, 387.497 162, 408.378 162 L 433.856 162 435.794 156.750 C 441.343 141.714, 443.242 130.231, 443.195 112 C 443.053 57.596, 415.257 24.338, 364.603 17.962 C 325.901 13.090, 290.213 29.160, 267.590 61.646 C 257.863 75.614, 254.137 75.614, 244.410 61.646 C 229.403 40.096, 210.279 26.548, 186.119 20.351 C 173.902 17.217, 155.397 16.414, 142.840 18.472 M 160.115 144.649 C 159.556 146.767, 157.645 154.339, 155.869 161.476 C 151.125 180.538, 154.452 179, 117.947 179 L 87.804 179 89.709 182.010 C 100.495 199.044, 159.266 251.843, 243.213 319.912 L 255.926 330.221 258.359 328.360 C 266.754 321.943, 340.753 260.215, 354 248.580 C 396.547 211.211, 417.040 191.029, 423.382 180.250 C 423.959 179.270, 420.448 179, 407.142 179 L 390.165 179 386.487 190.040 C 382.524 201.932, 380.572 204.333, 374.866 204.333 C 369.872 204.333, 368.285 201.514, 363.114 183.457 L 358.258 166.500 355.653 175 C 354.220 179.675, 350.141 193.170, 346.588 204.989 C 339.642 228.091, 338.572 230, 332.564 230 C 326.210 230, 325.759 228.780, 317.025 187.956 C 306.698 139.692, 306.880 140.446, 306.007 142.112 C 305.607 142.875, 303.583 150.385, 301.510 158.799 C 299.437 167.214, 296.939 175.089, 295.960 176.299 C 294.234 178.433, 293.427 178.515, 269.423 179 L 244.665 179.500 241.028 190.500 C 237.654 200.703, 237.131 201.629, 233.820 203.273 C 229.623 205.357, 225.945 204.457, 223.695 200.795 C 222.919 199.533, 220.357 191.637, 218.001 183.250 C 215.644 174.863, 213.443 168.003, 213.108 168.007 C 212.774 168.011, 208.675 180.948, 204 196.757 C 194.797 227.876, 193.757 230, 187.720 230 C 181.052 230, 180.800 229.301, 170.959 183.476 C 166.018 160.467, 161.785 141.452, 161.553 141.220 C 161.321 140.988, 160.674 142.531, 160.115 144.649 M 21.367 242.772 C 18.765 244.880, 17 248.172, 17 250.916 C 17 252.042, 18.800 256.860, 21 261.622 C 23.200 266.384, 25 271.376, 25 272.717 C 25 275.914, 19.875 281, 16.654 281 C 15.279 281, 12.810 279.870, 11.168 278.488 C 8.352 276.118, 8.553 276.785, 14.721 290.238 C 18.317 298.082, 21.351 304.612, 21.463 304.750 C 21.575 304.887, 21.667 303.579, 21.667 301.842 C 21.667 295.109, 31.197 291.388, 35.826 296.314 C 38.659 299.330, 38.585 303.208, 35.630 306.644 C 32.744 309.999, 27.224 310.418, 24.028 307.525 L 21.956 305.650 23.403 309.075 C 24.200 310.959, 27.128 317.450, 29.910 323.500 C 34.347 333.147, 34.971 334.060, 34.985 330.924 C 35.010 325.116, 40.483 321.226, 45.950 323.132 C 48.314 323.956, 49.865 325.924, 53.211 332.340 C 57.144 339.884, 60.030 343.086, 91.437 374.750 L 125.409 409 160.826 409 L 196.243 409 195.762 393.750 C 195.356 380.850, 194.879 377.267, 192.666 370.500 C 187.546 354.837, 176.812 340.899, 165.894 335.738 C 162.927 334.336, 156.084 331.136, 150.688 328.628 C 138.952 323.174, 123.719 313.361, 112.031 303.725 C 107.339 299.857, 102.052 296.086, 100.282 295.346 C 95.708 293.433, 88.219 293.717, 83.201 295.995 C 79.203 297.809, 78.985 298.107, 80.093 300.223 C 80.748 301.475, 92.209 313.525, 105.561 327 C 120.541 342.118, 130.094 352.525, 130.508 354.176 C 131.943 359.895, 125.960 365.905, 120.176 364.555 C 118.458 364.153, 109.080 355.445, 93.968 340.215 C 64.321 310.337, 62.750 308.047, 47.445 272.365 C 40.034 255.086, 35.024 244.697, 33.405 243.250 C 30.340 240.510, 24.449 240.276, 21.367 242.772 M 478.595 243.250 C 476.976 244.697, 471.966 255.086, 464.555 272.365 C 449.390 307.719, 447.567 310.404, 419.032 339.384 C 406.639 351.971, 395.076 362.873, 393.335 363.612 C 386.980 366.310, 380.055 360.782, 381.619 354.259 C 382.046 352.475, 390.839 342.841, 406.497 327 C 419.817 313.525, 431.237 301.503, 431.875 300.284 C 432.887 298.348, 432.697 297.848, 430.369 296.322 C 426.726 293.935, 416.465 293.361, 411.857 295.286 C 409.894 296.107, 404.587 299.866, 400.064 303.639 C 384.790 316.385, 375.149 322.135, 346.606 335.523 C 335.185 340.881, 324.563 354.503, 319.334 370.500 C 317.121 377.267, 316.644 380.850, 316.238 393.750 L 315.757 409 351.175 409 L 386.592 409 420.126 375.250 L 453.660 341.500 458.701 331.500 C 461.473 326, 470.812 305.873, 479.455 286.773 C 496.691 248.682, 496.743 248.486, 490.850 243.527 C 487.006 240.293, 482.029 240.180, 478.595 243.250 M 119 461.155 L 119 495.310 132.658 494.655 C 140.170 494.295, 161.320 494, 179.658 494 L 213 494 213 460.500 L 213 427 166 427 L 119 427 119 461.155 M 299 460.500 L 299 494 337 494 L 375 494 375 460.500 L 375 427 337 427 L 299 427 299 460.500" stroke="none" fill="#eaebfc" fill-rule="evenodd"/></svg>