<svg xmlns="http://www.w3.org/2000/svg" width="512" height="512" viewBox="0 0 512 512" version="1.1"><path d="M 56.241 1.995 C 54.448 3.088, 52.088 5.448, 50.995 7.241 C 49.027 10.467, 49.007 12.745, 49.004 233.602 L 49 456.704 51.250 460.001 C 55.486 466.206, 58.434 467, 77.234 467 L 94 467 94 483.766 C 94 502.566, 94.794 505.514, 100.999 509.750 L 104.296 512 278.398 511.996 C 450.360 511.993, 452.540 511.968, 455.759 510.005 C 457.552 508.912, 459.912 506.552, 461.005 504.759 C 462.973 501.533, 462.993 499.255, 462.996 278.398 L 463 55.296 460.750 51.999 C 456.514 45.794, 453.566 45, 434.766 45 L 418 45 418 28.234 C 418 9.434, 417.206 6.486, 411.001 2.250 L 407.704 0 233.602 0.004 C 61.640 0.007, 59.460 0.032, 56.241 1.995 M 61.667 12.667 C 61.300 13.033, 61 112.203, 61 233.044 C 61 407.681, 61.256 452.934, 62.250 453.628 C 62.956 454.121, 137.641 454.283, 234 454 L 404.500 453.500 404.752 233.560 C 404.953 58.268, 404.750 13.459, 403.752 12.826 C 402.246 11.870, 62.622 11.712, 61.667 12.667 M 417.757 257.427 L 417.500 456.853 415.438 459.615 C 414.304 461.134, 412.134 463.304, 410.615 464.438 C 407.857 466.497, 407.638 466.500, 257.176 466.708 L 106.500 466.916 106.223 482.073 C 106.035 492.398, 106.313 497.672, 107.096 498.615 C 108.066 499.785, 134.677 500, 278.422 500 C 409.449 500, 448.876 499.724, 449.800 498.800 C 450.726 497.874, 451 447.774, 451 279.382 C 451 159.362, 450.727 60.452, 450.393 59.582 C 449.875 58.231, 447.464 58, 433.900 58 L 418.015 58 417.757 257.427" stroke="none" fill="#0424c4" fill-rule="evenodd"/><path d="M 61.667 12.667 C 61.300 13.033, 61 112.203, 61 233.044 C 61 472.265, 60.589 455.557, 66.449 454.822 L 69.019 454.500 69.259 233.250 L 69.500 12 65.917 12 C 63.946 12, 62.033 12.300, 61.667 12.667 M 101.223 48.557 L 99 50.113 99 92 L 99 133.887 101.223 135.443 C 103.081 136.745, 107.299 137, 127 137 C 153.619 137, 155 136.679, 155 130.500 C 155 124.468, 153.256 124, 130.777 124 L 111 124 111 87.500 C 111 52.333, 110.927 50.927, 109 49 C 106.597 46.597, 104.214 46.462, 101.223 48.557 M 177.500 48.336 C 167.588 51.626, 160.155 58.297, 156.997 66.738 C 155.246 71.416, 155 74.534, 155 92 C 155 115.109, 156.026 119.502, 163.155 126.922 C 169.441 133.463, 176.775 136.515, 186 136.429 C 198.534 136.311, 207.628 130.564, 213.205 119.235 L 216.500 112.542 216.500 92 L 216.500 71.458 213.205 64.765 C 209.678 57.601, 205.335 53.318, 198.194 49.961 C 192.652 47.356, 182.787 46.581, 177.500 48.336 M 249.120 48.750 C 247.651 49.973, 242.934 62.544, 233.458 90.490 C 218.879 133.484, 218.855 133.610, 224.485 136.175 C 229.866 138.627, 231.131 136.806, 238.095 116.594 L 244.500 98.004 259.500 98.009 L 274.500 98.013 280.892 116.593 C 287.845 136.804, 289.118 138.634, 294.515 136.175 C 300.137 133.614, 300.112 133.486, 285.534 90.496 C 276.086 62.634, 271.335 49.969, 269.875 48.750 C 268.249 47.393, 265.919 47, 259.500 47 C 253.083 47, 250.749 47.394, 249.120 48.750 M 310.088 48.750 C 307.965 50.492, 307.957 50.680, 308.228 92.462 L 308.500 134.424 311.250 135.962 C 313.724 137.346, 314.276 137.346, 316.750 135.962 L 319.500 134.425 320 105.302 L 320.500 76.179 338.456 105.177 C 348.332 121.126, 357.320 134.811, 358.429 135.588 C 361.219 137.542, 363.646 137.354, 366 135 C 367.935 133.065, 368 131.667, 368 92.039 C 368 51.189, 367.994 51.072, 365.811 49.039 C 363.080 46.494, 360.890 46.459, 357.861 48.910 C 355.505 50.817, 355.499 50.877, 355 78.822 L 354.500 106.823 336.555 77.843 C 326.686 61.903, 317.828 48.443, 316.871 47.931 C 314.316 46.564, 312.484 46.785, 310.088 48.750 M 178.481 61.338 C 174.334 63.222, 169.323 69.177, 168.060 73.723 C 166.694 78.642, 166.703 105.389, 168.072 110.321 C 169.451 115.286, 175.184 121.576, 179.685 123.061 C 188.060 125.825, 198.066 121.628, 201.879 113.750 C 203.791 109.801, 204 107.655, 204 92 C 204 71.876, 202.877 67.933, 195.819 63.261 C 191.125 60.155, 183.057 59.260, 178.481 61.338 M 253.083 72.251 C 250.837 78.990, 249 84.840, 249 85.251 C 249 85.663, 253.725 86, 259.500 86 C 265.275 86, 270.005 85.662, 270.011 85.250 C 270.017 84.838, 268.151 78.987, 265.863 72.250 C 262.180 61.405, 261.443 60, 259.435 60 C 257.422 60, 256.705 61.382, 253.083 72.251 M 86.524 173.358 C 84.357 174.943, 84.032 180.129, 85.956 182.447 C 87.044 183.758, 90.410 184, 107.541 184 C 118.703 184, 128.583 183.714, 129.495 183.364 C 133.214 181.937, 133.281 175.223, 129.600 172.765 C 128.995 172.361, 119.474 172.024, 108.441 172.015 C 93.099 172.004, 87.945 172.319, 86.524 173.358 M 150.571 173.571 C 149.707 174.436, 149 176.429, 149 178 C 149 184.427, 140.672 184, 266 184 C 391.328 184, 383 184.427, 383 178 C 383 171.573, 391.328 172, 266 172 C 163.827 172, 151.982 172.161, 150.571 173.571 M 86.455 213.455 C 83.460 216.449, 83.387 217.951, 86.073 221.365 L 88.145 224 200.350 224 C 300.286 224, 312.798 223.830, 314.777 222.443 C 317.606 220.462, 317.718 215.718, 315 213 C 313.024 211.024, 311.667 211, 200.955 211 L 88.909 211 86.455 213.455 M 335.455 213.455 C 332.460 216.449, 332.387 217.951, 335.073 221.365 L 337.145 224 358.418 224 C 378.301 224, 379.806 223.872, 381.470 222.033 C 383.942 219.301, 383.730 215.010, 381.014 212.810 C 379.019 211.195, 376.575 211, 358.344 211 C 337.981 211, 337.900 211.009, 335.455 213.455 M 86.637 252.506 C 82.917 256.226, 84.368 262.315, 89.263 263.518 C 90.493 263.821, 118.597 263.940, 151.715 263.784 C 203.684 263.539, 212.125 263.295, 213.357 262 C 215.958 259.268, 216.156 256.468, 213.945 253.657 L 211.855 251 149.999 251 C 96.241 251, 87.946 251.197, 86.637 252.506 M 233.655 252.829 C 231.625 255.072, 231.520 258.961, 233.419 261.559 C 234.802 263.449, 236.726 263.500, 307.384 263.500 C 373.655 263.500, 380.072 263.356, 381.589 261.839 C 383.763 259.666, 383.706 255.437, 381.470 252.967 C 379.731 251.046, 378.015 251, 307.500 251 C 238.833 251, 235.229 251.089, 233.655 252.829 M 88.315 291.007 C 83.796 292.828, 82.989 299.853, 87.049 302.026 C 88.192 302.638, 123.605 303, 182.279 303 C 271.504 303, 275.764 302.918, 277.345 301.171 C 279.074 299.260, 279.507 295.346, 278.214 293.313 C 277.799 292.659, 276.202 291.647, 274.665 291.063 C 271.198 289.745, 91.581 289.691, 88.315 291.007 M 299.235 291.037 C 294.896 292.780, 294.390 299.558, 298.400 302.235 C 299.856 303.207, 379.157 303.188, 380.687 302.214 C 382.626 300.982, 383.815 296.689, 382.899 294.235 C 382.434 292.990, 380.887 291.527, 379.462 290.985 C 376.172 289.735, 302.359 289.782, 299.235 291.037 M 86.073 332.635 C 83.387 336.049, 83.460 337.551, 86.455 340.545 L 88.909 343 117.955 343 C 145.667 343, 147.092 342.908, 149 341 C 150.100 339.900, 151 337.875, 151 336.500 C 151 335.125, 150.100 333.100, 149 332 C 147.091 330.091, 145.667 330, 117.573 330 L 88.145 330 86.073 332.635 M 169 332 C 166.345 334.655, 166.470 338.153, 169.314 340.826 L 171.629 343 275.204 343 C 373.673 343, 378.889 342.911, 381.014 341.190 C 382.392 340.074, 383.250 338.274, 383.250 336.500 C 383.250 334.726, 382.392 332.926, 381.014 331.810 C 378.889 330.089, 373.662 330, 274.889 330 C 172.333 330, 170.974 330.026, 169 332 M 86.524 371.358 C 84.357 372.943, 84.032 378.129, 85.956 380.447 C 87.108 381.835, 100.095 382, 208.566 382 L 329.887 382 331.443 379.777 C 333.538 376.786, 333.403 374.403, 331 372 C 329.022 370.022, 327.667 370, 208.691 370 C 108.900 370, 88.065 370.232, 86.524 371.358 M 350.655 371.829 C 348.469 374.244, 348.552 378.284, 350.829 380.345 C 352.337 381.710, 354.981 382, 365.894 382 C 373.175 382, 380.002 381.534, 381.066 380.965 C 382.395 380.254, 383 378.868, 383 376.536 C 383 370.562, 381.546 370, 366.084 370 C 354.010 370, 352.106 370.226, 350.655 371.829 M 86.455 411.455 C 83.460 414.449, 83.387 415.951, 86.073 419.365 L 88.145 422 150.823 421.985 C 185.295 421.976, 213.995 421.639, 214.600 421.235 C 215.929 420.348, 218 416.561, 218 415.020 C 218 414.409, 216.895 412.805, 215.545 411.455 L 213.091 409 151 409 L 88.909 409 86.455 411.455 M 238 409.694 C 233.665 411.243, 232.567 417.883, 236.223 420.443 C 238.183 421.817, 246.767 422, 309.068 422 C 378.023 422, 379.732 421.954, 381.470 420.033 C 383.942 417.301, 383.730 413.010, 381.014 410.810 C 378.902 409.100, 374.925 409.004, 309.139 409.079 C 270.838 409.122, 238.825 409.399, 238 409.694 M 106.714 466.619 C 105.431 467.902, 105.878 497.478, 107.200 498.800 C 107.860 499.460, 109.896 500, 111.724 500 L 115.048 500 114.774 483.250 L 114.500 466.500 110.964 466.202 C 109.020 466.039, 107.107 466.226, 106.714 466.619" stroke="none" fill="#fb5cf3" fill-rule="evenodd"/></svg>